<?xml version="1.0" encoding="iso-8859-1"?>
<!-- Generator: Adobe Illustrator 19.0.0, SVG Export Plug-In . SVG Version: 6.00 Build 0)  -->
<svg version="1.1" id="Layer_1" xmlns="http://www.w3.org/2000/svg" xmlns:xlink="http://www.w3.org/1999/xlink" x="0px" y="0px"
	 viewBox="0 0 427.68 427.68" style="enable-background:new 0 0 427.68 427.68;" xml:space="preserve">
<g>
	<path style="fill:#D83935;" d="M296.838,68H130.842c-5.741,0-10.462,4.526-10.703,10.262L118.09,127h191.5l-2.049-48.738
		C307.3,72.526,302.579,68,296.838,68z"/>
	<g>
		<path style="fill:#D83935;" d="M345.54,338.29v89.39H82.14v-89.39c0-18.58,6.24-35.69,16.74-49.37
			c11.9-15.49,218.02-15.49,229.92,0C339.3,302.6,345.54,319.71,345.54,338.29z"/>
		<path style="fill:#E6E6E6;" d="M328.8,288.92c-11.9,15.5-29.27,26.57-49.21,30.34c-4.91,0.93-9.99,1.42-15.17,1.42H163.26
			c-5.18,0-10.26-0.49-15.17-1.42c-19.94-3.77-37.31-14.84-49.21-30.34c11.9-15.49,29.27-26.56,49.21-30.33
			c4.91-0.93,9.99-1.42,15.17-1.42h101.16c5.18,0,10.26,0.49,15.17,1.42C299.53,262.36,316.9,273.43,328.8,288.92z"/>
		<rect x="82.142" y="376.5" style="fill:#E6E6E6;" width="60.081" height="51.18"/>
		<rect x="285.457" y="376.5" style="fill:#E6E6E6;" width="60.081" height="51.18"/>
	</g>
	<path style="fill:#D83935;" d="M213.84,297.5L213.84,297.5c-22.383,0-42.242-14.355-49.262-35.608L155.034,233h117.611
		l-9.544,28.892C256.082,283.145,236.223,297.5,213.84,297.5z"/>
	<path style="fill:#FFD3AE;" d="M263.2,239.65c-14.1,9.49-31.08,15.03-49.36,15.03s-35.26-5.54-49.36-15.03
		c-0.19-0.13-0.39-0.26-0.58-0.4c-23.28-15.94-38.56-42.72-38.56-73.07v-22.5v-51.5c0-48.877,39.623-88.5,88.5-88.5l0,0
		c48.877,0,88.5,39.623,88.5,88.5v51.5v22.5c0,30.35-15.28,57.13-38.56,73.07C263.59,239.39,263.39,239.52,263.2,239.65z"/>
	<path style="fill:#E5B591;" d="M210.888,22.181L210.888,22.181L210.888,22.181c-0.016-0.001-0.032,0-0.048,0
		c-0.016,0-0.032-0.001-0.048-0.001l0,0v0.001C160.818,22.233,128.85,61.014,128.85,111l-8.527,53.5h5.462v-11.22
		c0-13.392,10.54-24.411,23.919-25.006l61.137-2.718l61.137,2.718c13.379,0.595,23.919,11.614,23.919,25.006v40.792l5.462-29.572
		v-51.755C301.358,62.759,260.862,22.233,210.888,22.181z"/>
	<path style="fill:#D83935;" d="M213.888,3.681L213.888,3.681L213.888,3.681c-0.016-0.001-0.032,0-0.048,0
		c-0.016,0-0.032-0.001-0.048-0.001l0,0v0.001c-49.974,0.052-90.47,40.578-90.47,90.564V146h5.462v-11.22
		c0-13.392,10.54-24.411,23.919-25.006l61.137-2.718l61.137,2.718c13.379,0.595,23.919,11.614,23.919,25.006V146h5.462V94.245
		C304.358,44.259,263.862,3.733,213.888,3.681z"/>
	<g>
		<path style="fill:#E5B591;" d="M166.709,143.013h35.044c6.522,0,11.81,5.287,11.81,11.81v21.123c0,5.092,4.128,9.22,9.22,9.22
			h6.748l-2.943,1.044c-7.666,2.72-16.214,0.773-21.946-4.999L166.709,143.013z"/>
	</g>
	<g>
		<path style="fill:#333333;" d="M179.84,164.116c-1.58,0-3.13-0.64-4.24-1.75c-1.12-1.12-1.76-2.67-1.76-4.25s0.64-3.12,1.76-4.24
			c1.39-1.39,3.46-2.03,5.41-1.64c0.39,0.08,0.76,0.19,1.13,0.34c0.36,0.15,0.71,0.34,1.03,0.55c0.33,0.22,0.64,0.47,0.91,0.75
			c0.28,0.28,0.53,0.58,0.75,0.91s0.4,0.68,0.55,1.04c0.15,0.36,0.27,0.74,0.34,1.12c0.08,0.39,0.12,0.78,0.12,1.17
			s-0.04,0.79-0.12,1.18c-0.07,0.38-0.19,0.76-0.34,1.12s-0.33,0.71-0.55,1.03c-0.22,0.33-0.47,0.64-0.75,0.92
			C182.97,163.477,181.42,164.116,179.84,164.116z"/>
		<path style="fill:#333333;" d="M247.84,164.116c-0.39,0-0.79-0.04-1.17-0.11c-0.38-0.08-0.76-0.2-1.12-0.35
			c-0.37-0.15-0.71-0.33-1.04-0.55c-0.33-0.22-0.64-0.47-0.91-0.74c-0.28-0.28-0.53-0.59-0.75-0.92c-0.22-0.32-0.4-0.67-0.55-1.03
			c-0.15-0.36-0.27-0.74-0.34-1.12c-0.08-0.39-0.12-0.79-0.12-1.18s0.04-0.78,0.12-1.17c0.07-0.38,0.19-0.76,0.34-1.12
			s0.33-0.71,0.55-1.04c0.22-0.33,0.47-0.63,0.75-0.91c0.27-0.28,0.58-0.53,0.91-0.75c0.33-0.21,0.67-0.4,1.04-0.55
			c0.36-0.15,0.74-0.26,1.12-0.34c1.95-0.39,4.02,0.25,5.41,1.64c0.28,0.28,0.53,0.58,0.75,0.91s0.4,0.68,0.55,1.04
			c0.15,0.36,0.27,0.74,0.34,1.12c0.08,0.39,0.12,0.78,0.12,1.17s-0.04,0.79-0.12,1.18c-0.07,0.38-0.19,0.76-0.34,1.12
			s-0.33,0.71-0.55,1.03c-0.22,0.33-0.47,0.64-0.75,0.92C250.97,163.477,249.42,164.116,247.84,164.116z"/>
		<path style="fill:#333333;" d="M190.778,146.013h-21.875c-3.087,0-5.59-2.503-5.59-5.59l0,0c0-3.087,2.503-5.59,5.59-5.59h21.875
			c3.087,0,5.59,2.503,5.59,5.59l0,0C196.368,143.511,193.865,146.013,190.778,146.013z"/>
		<path style="fill:#333333;" d="M258.778,146.013h-21.875c-3.087,0-5.59-2.503-5.59-5.59l0,0c0-3.087,2.503-5.59,5.59-5.59h21.875
			c3.087,0,5.59,2.503,5.59,5.59l0,0C264.368,143.511,261.865,146.013,258.778,146.013z"/>
	</g>
	<path style="fill:#FFFFFF;" d="M239.072,197.677c0,2.98-0.52,5.83-1.48,8.49c-0.45,1.28-1.01,2.51-1.65,3.68
		c-4.3,7.78-12.58,13.05-22.1,13.05c-9.53,0-17.81-5.27-22.11-13.05c-0.65-1.17-1.21-2.4-1.66-3.68c-0.96-2.66-1.47-5.51-1.47-8.49
		H239.072z"/>
	<path style="fill:#333333;" d="M237.592,206.167c-0.45,1.28-1.01,2.51-1.65,3.68c-4.3,7.78-12.58,13.05-22.1,13.05
		c-9.53,0-17.81-5.27-22.11-13.05c-0.65-1.17-1.21-2.4-1.66-3.68H237.592z"/>
	<path style="fill:#D83935;" d="M227.651,0H200.03c-2.871,0-5.199,2.328-5.199,5.199v89.602c0,2.871,2.328,5.199,5.199,5.199h27.621
		c2.871,0,5.199-2.328,5.199-5.199V5.199C232.85,2.328,230.522,0,227.651,0z"/>
	<path style="fill:#E6E6E6;" d="M299.828,96.87c-4.368-2.696-9.708-2.936-14.289-0.64c-5.662,2.838-11.437,5.319-17.312,7.446
		c-0.623-0.452-1.239-0.885-1.854-1.304c-0.164-0.118-0.332-0.233-0.498-0.345l-0.163-0.11
		C250.359,91.583,232.421,86.12,213.84,86.12c-18.581,0-36.518,5.462-51.908,15.821l-0.146,0.099
		c-0.159,0.107-0.319,0.216-0.477,0.33c-0.614,0.418-1.23,0.852-1.856,1.306c-5.875-2.127-11.65-4.608-17.312-7.446l0,0
		c-4.582-2.296-9.923-2.055-14.29,0.641c-4.39,2.71-7.011,7.407-7.011,12.563v56.746c0,30.686,15.127,59.371,40.464,76.746
		c0.16,0.116,0.324,0.228,0.486,0.337l0.177,0.12c14.964,10.071,32.381,15.5,50.454,15.771c0.03,0.001,0.06,0.004,0.09,0.005
		c0.436,0.011,0.882,0.021,1.329,0.021c0.446,0,0.894-0.01,1.335-0.021c0.031-0.001,0.062-0.004,0.093-0.005
		c18.071-0.273,35.484-5.702,50.467-15.786l0.134-0.09c0.171-0.115,0.343-0.231,0.51-0.353
		c25.338-17.375,40.462-46.06,40.462-76.745v-56.746C306.84,104.278,304.219,99.581,299.828,96.87z M289.572,104.276
		c1.794-0.9,3.81-0.808,5.528,0.252c1.74,1.075,2.739,2.863,2.739,4.906v11.088c-5.292,3.264-10.747,6.208-16.344,8.817V109.43
		c0-0.456-0.018-0.908-0.049-1.355C284.178,106.881,286.889,105.621,289.572,104.276z M209.34,122.066v22.164
		c-18.678-0.519-36.972-4.272-54.156-11.031v-21.511C172.482,118.104,190.617,121.587,209.34,122.066z M209.34,153.23v17.785
		c-19.284,1.05-37.299,8.801-51.204,21.413c-1.929-8.36-2.952-17.202-2.952-26.248v-23.324
		C172.447,149.231,190.718,152.74,209.34,153.23z M209.34,180.028v69.891c-9.837-1.082-19.326-5.707-27.583-13.486l-0.439-0.43
		c-8.958-8.592-15.934-20.307-20.419-33.745C173.558,189.264,190.774,181.162,209.34,180.028z M246.362,236.002l-0.38,0.372
		c-8.311,7.832-17.807,12.462-27.643,13.544v-69.891c18.566,1.134,35.782,9.237,48.441,22.23
		C262.297,215.696,255.321,227.41,246.362,236.002z M272.496,166.18c0,9.046-1.023,17.889-2.952,26.248
		c-13.905-12.612-31.92-20.363-51.204-21.413V153.23c18.621-0.49,36.893-4,54.156-10.375V166.18z M218.34,144.23v-22.164
		c18.723-0.48,36.857-3.962,54.156-10.378v21.51C255.311,139.959,237.018,143.711,218.34,144.23z M218.34,113.067V95.253
		c13.815,0.73,27.116,4.813,38.895,11.94C244.651,110.732,231.655,112.706,218.34,113.067z M209.34,95.253v17.814
		c-13.315-0.36-26.311-2.335-38.894-5.873C182.239,100.062,195.533,95.983,209.34,95.253z M132.579,104.529
		c0.935-0.577,1.957-0.867,2.983-0.867c0.861,0,1.727,0.204,2.545,0.615l0,0c2.684,1.345,5.394,2.605,8.125,3.799
		c-0.031,0.447-0.049,0.899-0.049,1.355v19.909c-5.597-2.609-11.052-5.553-16.344-8.817v-11.088
		C129.84,107.391,130.838,105.603,132.579,104.529z M129.84,130.992c5.31,3.042,10.765,5.781,16.344,8.216v26.972
		c0,11.724,1.61,23.163,4.618,33.793c-2.937,3.437-5.603,7.136-7.969,11.064c-8.366-13.241-12.993-28.742-12.993-44.857V130.992z
		 M166.823,235.802c-0.087-0.058-0.175-0.116-0.26-0.179l-0.122-0.086c-6.798-4.655-12.776-10.215-17.833-16.451
		c1.664-3.129,3.539-6.108,5.601-8.926c4.237,10.887,10.043,20.613,17.168,28.503c-1.473-0.865-2.929-1.766-4.354-2.725
		L166.823,235.802z M261.237,235.537l-0.131,0.093c-0.086,0.063-0.176,0.122-0.263,0.181l-0.157,0.106
		c-1.435,0.966-2.9,1.872-4.382,2.743c7.123-7.89,12.929-17.615,17.165-28.499c2.062,2.817,3.937,5.796,5.601,8.925
		C274.013,225.321,268.036,230.882,261.237,235.537z M284.847,211.037c-2.365-3.929-5.031-7.627-7.968-11.064
		c3.007-10.63,4.618-22.069,4.618-33.793v-26.972c5.578-2.434,11.033-5.174,16.344-8.215v35.188
		C297.84,182.295,293.213,197.795,284.847,211.037z"/>
	<path style="fill:#D83935;" d="M120.84,180.167L120.84,180.167v-70.733l0,0c-6.438,0-11.657,5.219-11.657,11.657v47.419
		C109.183,174.948,114.402,180.167,120.84,180.167z"/>
	<path style="fill:#D83935;" d="M306.84,180.167L306.84,180.167v-70.733l0,0c6.438,0,11.657,5.219,11.657,11.657v47.419
		C318.497,174.948,313.278,180.167,306.84,180.167z"/>
	<g>
		<path style="fill:#C42C2C;" d="M164.965,48.5L164.965,48.5c-5.247,0-9.5,4.253-9.5,9.5v10h9.5V48.5z"/>
		<path style="fill:#C42C2C;" d="M262.715,48.5L262.715,48.5V68h9.5V58C272.215,52.753,267.962,48.5,262.715,48.5z"/>
	</g>
</g>
<g>
</g>
<g>
</g>
<g>
</g>
<g>
</g>
<g>
</g>
<g>
</g>
<g>
</g>
<g>
</g>
<g>
</g>
<g>
</g>
<g>
</g>
<g>
</g>
<g>
</g>
<g>
</g>
<g>
</g>
</svg>
